<svg width="262" height="179" viewBox="0 0 262 179" fill="none" xmlns="http://www.w3.org/2000/svg">
<path d="M41.5 1.5C36.6291 1 27.4588 18.2707 27.4588 18.2707L6.9742 35.7654V46.6496L1 59.0259L10.3865 70.5464L32.3688 65.8504L46.0233 78.6828L52.2115 106.82L64.3739 113.436L67.7861 140.531L72.91 166.776L65.866 173.178L66.2939 177.66H82.5105L87.6288 137.76L90.8327 123.892L129.454 121.116L176.183 106.178L174.899 134.343L181.302 164.433L170.845 169.338L173.407 177.66H190.052L199.01 155.683L193.678 147.361L197.304 105.755L203.492 85.2708L210.536 87.8271L216.297 138.611L236.781 154.613L257.902 145.441L261.32 127.518L250.222 124.106L248.302 132L239.98 139.253L229.101 127.946L223.977 70.9743L210.75 59.4482H190.052L171.273 51.1316L107.049 58.1701L89.5489 49.4199L76.1083 50.7037L53.7036 31.2833C53.7036 31.2833 46.3709 2 41.5 1.5Z" stroke="white" stroke-miterlimit="10" stroke-linejoin="round"/>
<path d="M41.5 1.5L38.1291 30.7878M38.1291 30.7878L37.4872 48.7836L32.3688 65.8559L17.4305 58.7443L19.6377 37.691L27.4588 18.2706C31.0174 22.443 34.5705 26.6154 38.1291 30.7878ZM38.1291 30.7878C31.9635 33.0851 25.8034 35.3881 19.6377 37.6854C15.4203 37.0435 11.1973 36.4072 6.97986 35.7653" stroke="white" stroke-miterlimit="10" stroke-linejoin="round"/>
<path d="M38.129 30.7878L53.7036 31.2833L37.4871 48.7837L19.6376 37.6855L6.97412 46.6496L17.4304 58.7388L10.3864 70.5464" stroke="white" stroke-miterlimit="10" stroke-linejoin="round"/>
<path d="M1 59.0259L17.4305 58.7388L37.4872 48.7836L53.7036 59.6678L76.1083 50.7037L63.8728 75.6704L46.0965 79.0375C48.6303 72.5791 51.1642 66.1263 53.7036 59.6678C53.7036 50.2082 53.7036 40.7486 53.7036 31.2889" stroke="white" stroke-miterlimit="10" stroke-linejoin="round"/>
<path d="M32.3688 65.8504L53.7036 59.6622L63.8728 75.6648L66.6487 93.1651L64.3739 113.436L90.8327 123.892L67.7861 140.531L87.6288 137.76L72.91 166.776L82.5105 177.66L65.866 173.178" stroke="white" stroke-miterlimit="10" stroke-linejoin="round"/>
<path d="M76.1084 50.7037L83.7887 75.6648L66.6488 93.1651L52.2115 106.82L63.8728 75.6648" stroke="white" stroke-miterlimit="10" stroke-linejoin="round"/>
<path d="M63.946 76.0251L83.7887 75.6704L107.049 58.1757L113.378 86.5546L90.8328 123.898L66.6488 93.1707C82.2234 90.9634 97.8036 88.7618 113.378 86.5546C103.513 82.9284 93.6538 79.3022 83.7887 75.6704C85.7088 66.9202 87.6289 58.1757 89.549 49.4255" stroke="white" stroke-miterlimit="10" stroke-linejoin="round"/>
<path d="M107.049 58.17L158.897 60.5181L183.081 82.9959L163.593 94.6628L129.454 121.122L115.653 108.464L113.378 86.5546C128.553 77.8776 143.722 69.2006 158.897 60.5237C160.462 71.9034 162.028 83.2831 163.593 94.6628C167.788 98.503 171.988 102.343 176.183 106.183C178.481 98.4523 180.784 90.7269 183.081 82.9959C185.406 75.1467 187.726 67.3031 190.052 59.4539L203.492 85.2708L210.745 59.4539L210.531 87.8327L223.971 70.9743L216.207 137.907L229.09 127.946L236.77 154.619L239.968 139.258L257.891 145.446L248.291 132.006C252.632 130.514 256.967 129.016 261.309 127.524" stroke="white" stroke-miterlimit="10" stroke-linejoin="round"/>
<path d="M90.8328 123.892L115.653 108.458L163.593 94.6572L113.378 86.549" stroke="white" stroke-miterlimit="10" stroke-linejoin="round"/>
<path d="M158.897 60.518L171.273 51.1316L183.081 82.9903L203.492 85.2707L176.183 106.178L197.304 105.755L174.899 134.343L193.678 147.361L181.302 164.433L199.01 155.683" stroke="white" stroke-miterlimit="10" stroke-linejoin="round"/>
<path d="M173.407 177.66L181.302 164.433L190.052 177.66" stroke="white" stroke-miterlimit="10" stroke-linejoin="round"/>
</svg>
