<svg width="61" height="61" viewBox="0 0 61 61" fill="none" xmlns="http://www.w3.org/2000/svg">
<circle cx="30.5" cy="30.5" r="29" stroke="#01FE66" stroke-width="3"/>
<g clip-path="url(#clip0)">
<path d="M20.0256 14C16.6877 14 14 16.6877 14 20.0256V40.9744C14 44.3124 16.6877 47 20.0256 47H31.3797V34.0991H27.9683V29.4543H31.3797V25.4861C31.3797 22.3684 33.3953 19.5059 38.0385 19.5059C39.9184 19.5059 41.3086 19.6863 41.3086 19.6863L41.1992 24.0238C41.1992 24.0238 39.7814 24.0104 38.2344 24.0104C36.56 24.0104 36.2915 24.7819 36.2915 26.0626V29.4544H41.3323L41.1126 34.0991H36.2915V47.0001H40.9744C44.3123 47.0001 47 44.3124 47 40.9745V20.0256C47 16.6877 44.3123 14 40.9744 14H20.0256L20.0256 14Z" fill="white"/>
</g>
<defs>
<clipPath id="clip0">
<rect width="33" height="33" fill="white" transform="translate(14 14)"/>
</clipPath>
</defs>
</svg>
