<svg width="44" height="38" viewBox="0 0 44 38" fill="none" xmlns="http://www.w3.org/2000/svg">
<path d="M25.1429 5.01901e-08C20.1416 4.02067e-08 15.3452 2.00178 11.8088 5.56497C8.27244 9.12816 6.28571 13.9609 6.28571 19L-3.79278e-08 19L8.15048 27.2122L8.29714 27.5078L16.7619 19L10.4762 19C10.4762 10.83 17.0343 4.22222 25.1429 4.22222C33.2514 4.22222 39.8095 10.83 39.8095 19C39.8095 27.17 33.2514 33.7778 25.1429 33.7778C21.099 33.7778 17.4324 32.11 14.7924 29.4289L11.8171 32.4267C13.5633 34.1958 15.6399 35.5991 17.927 36.5557C20.2141 37.5122 22.6665 38.0031 25.1429 38C30.1441 38 34.9405 35.9982 38.4769 32.435C42.0133 28.8718 44 24.0391 44 19C44 13.9609 42.0133 9.12816 38.4769 5.56497C34.9405 2.00178 30.1441 1.35262e-07 25.1429 5.01901e-08ZM23.0476 10.5556L23.0476 21.1111L32.0152 26.4733L33.5238 23.9189L26.1905 19.5278L26.1905 10.5556L23.0476 10.5556Z" fill="white"/>
</svg>
