<svg width="40" height="40" viewBox="0 0 40 40" fill="none" xmlns="http://www.w3.org/2000/svg">
<path d="M1.99957 22.0004H3.99957V36.0004C3.99957 38.2064 5.79357 40.0004 7.99957 40.0004H31.9996C34.2056 40.0004 35.9996 38.2064 35.9996 36.0004V22.0004H37.9996C38.3951 22.0003 38.7817 21.883 39.1105 21.6632C39.4393 21.4434 39.6956 21.1311 39.8469 20.7657C39.9983 20.4003 40.0379 19.9982 39.9607 19.6103C39.8836 19.2224 39.6932 18.8661 39.4136 18.5864L21.4136 0.586402C21.228 0.400511 21.0076 0.253035 20.765 0.152414C20.5223 0.0517922 20.2622 0 19.9996 0C19.7369 0 19.4768 0.0517922 19.2342 0.152414C18.9916 0.253035 18.7712 0.400511 18.5856 0.586402L0.585574 18.5864C0.305955 18.8661 0.115542 19.2224 0.038407 19.6103C-0.0387282 19.9982 0.000877902 20.4003 0.152218 20.7657C0.303558 21.1311 0.559837 21.4434 0.888657 21.6632C1.21748 21.883 1.60407 22.0003 1.99957 22.0004ZM19.9996 4.8284L31.9996 16.8284V26.0004L32.0016 36.0004H7.99957V16.8284L19.9996 4.8284Z" fill="white"/>
</svg>
