<svg width="61" height="61" viewBox="0 0 61 61" fill="none" xmlns="http://www.w3.org/2000/svg">
<circle cx="30.5" cy="30.5" r="29" stroke="#01FE66" stroke-width="3"/>
<path d="M30.4956 24.9977C27.4658 24.9977 24.9933 27.4702 24.9933 30.5C24.9933 33.5298 27.4658 36.0023 30.4956 36.0023C33.5253 36.0023 35.9978 33.5298 35.9978 30.5C35.9978 27.4702 33.5253 24.9977 30.4956 24.9977ZM46.9982 30.5C46.9982 28.2215 47.0188 25.9636 46.8908 23.6891C46.7629 21.0474 46.1602 18.7028 44.2285 16.771C42.2926 14.835 39.9522 14.2365 37.3104 14.1086C35.0319 13.9806 32.7741 14.0012 30.4997 14.0012C28.2212 14.0012 25.9633 13.9806 23.689 14.1086C21.0472 14.2365 18.7027 14.8392 16.7709 16.771C14.835 18.7069 14.2365 21.0474 14.1085 23.6891C13.9806 25.9677 14.0012 28.2256 14.0012 30.5C14.0012 32.7744 13.9806 35.0364 14.1085 37.3109C14.2365 39.9526 14.8392 42.2972 16.7709 44.229C18.7068 46.165 21.0472 46.7635 23.689 46.8914C25.9675 47.0194 28.2253 46.9988 30.4997 46.9988C32.7782 46.9988 35.036 47.0194 37.3104 46.8914C39.9522 46.7635 42.2967 46.1608 44.2285 44.229C46.1644 42.2931 46.7629 39.9526 46.8908 37.3109C47.0229 35.0364 46.9982 32.7785 46.9982 30.5ZM30.4956 38.9661C25.8106 38.9661 22.0296 35.185 22.0296 30.5C22.0296 25.815 25.8106 22.0339 30.4956 22.0339C35.1805 22.0339 38.9615 25.815 38.9615 30.5C38.9615 35.185 35.1805 38.9661 30.4956 38.9661ZM39.3082 23.6644C38.2144 23.6644 37.3311 22.781 37.3311 21.6872C37.3311 20.5933 38.2144 19.71 39.3082 19.71C40.4021 19.71 41.2854 20.5933 41.2854 21.6872C41.2857 21.9469 41.2348 22.2042 41.1356 22.4442C41.0363 22.6842 40.8907 22.9023 40.707 23.086C40.5234 23.2697 40.3053 23.4153 40.0653 23.5145C39.8252 23.6138 39.568 23.6647 39.3082 23.6644Z" fill="white"/>
</svg>
