<svg width="292" height="117" viewBox="0 0 292 117" fill="none" xmlns="http://www.w3.org/2000/svg">
<path d="M233.001 52.8636L246.028 48.8554H260.81L272.71 52.8636L279.226 57.8738L281.23 65.1371L276.593 75.1575L260.056 82.5453L245.399 83.5473L229.367 78.5371L222.103 77.6595L203.313 69.139L207.826 56.2369L197.681 32.8102L175.636 14.3938L154.842 6.62639L120.268 12.6387L86.068 25.4163L75.0455 27.4204C75.0268 20.7733 75.0081 14.1262 74.9895 7.48528C72.419 7.19898 69.8485 6.91268 67.2781 6.62639L56.629 15.6448V1L48.1086 4.75922L44.5983 13.2797L26.9349 19.4165L8.51842 33.3206L2.75518 34.4471L1 41.4614L5.00822 42.2768L15.0286 51.1084L27.6818 51.986L33.943 56.1187L39.8308 54.8677L63.5064 76.0351L53.9839 84.1759L36.1961 86.5534L39.4511 89.3106L31.5592 91.9433L46.9696 91.1902L44.0879 97.9556L52.9818 91.4392L62.3737 89.0616L50.4736 98.7087L38.2001 103.594L32.4368 110.111L39.7001 107.354L35.3185 114.997L42.8369 111.113L39.4574 116.372L54.488 105.474L57.1207 100.339L70.2718 99.9659L92.9453 86.5597L95.827 80.7963H110.36L122.764 86.5597L147.317 88.0658L138.174 94.7067L124.395 94.2026L110.988 99.8414L105.978 106.98L109.488 106.607L107.235 108.984L124.021 105.101L124.395 111.486L132.287 102.841L168.864 98.329L175.125 91.0657L183.77 91.1902L197.924 83.5473L203.438 85.9248L233.754 93.5677L257.057 93.0636L273.967 89.1799L285.238 80.1615L290.877 68.0125L288.998 58.1165L283.359 50.2247L273.712 44.3369L258.557 41.4552L240.14 46.5899L233.001 52.8636Z" stroke="white" stroke-miterlimit="10" stroke-linecap="round" stroke-linejoin="round"/>
<path d="M240.14 46.5961L246.028 48.8554L258.557 41.4614L260.81 48.8554L273.712 44.3431L272.71 52.8636" stroke="white" stroke-miterlimit="10" stroke-linecap="round" stroke-linejoin="round"/>
<path d="M283.359 50.231L279.226 57.8739L288.998 58.1228" stroke="white" stroke-miterlimit="10" stroke-linecap="round" stroke-linejoin="round"/>
<path d="M290.871 68.0186L281.23 65.137L285.238 80.1676L276.593 75.1574L272.398 83.8024L260.056 82.5514L257.05 93.0697L245.406 83.5534L233.754 93.5739L229.367 78.5432" stroke="white" stroke-miterlimit="10" stroke-linecap="round" stroke-linejoin="round"/>
<path d="M273.712 89.2484L272.398 83.8025L285.238 80.1677" stroke="white" stroke-miterlimit="10" stroke-linecap="round" stroke-linejoin="round"/>
<path d="M222.103 77.6658L203.438 85.9311L203.313 69.1453L197.93 83.5535" stroke="white" stroke-miterlimit="10" stroke-linecap="round" stroke-linejoin="round"/>
<path d="M197.675 32.8164L170.495 58.6828L203.313 69.1452C193.679 71.6907 184.051 74.2363 174.416 76.7881C177.534 81.5929 180.652 86.3916 183.77 91.1964C190.287 83.846 196.797 76.4956 203.313 69.1514" stroke="white" stroke-miterlimit="10" stroke-linecap="round" stroke-linejoin="round"/>
<path d="M207.826 56.2432L170.495 58.6892L147.317 88.0596L144.062 101.391L138.174 94.7005L132.286 102.841L124.395 94.1964L109.488 106.601" stroke="white" stroke-miterlimit="10" stroke-linecap="round" stroke-linejoin="round"/>
<path d="M124.021 105.094L124.395 94.1963" stroke="white" stroke-miterlimit="10" stroke-linecap="round" stroke-linejoin="round"/>
<path d="M168.864 98.3351L147.317 88.0657L175.125 91.0719C174.889 86.3106 174.652 81.5493 174.416 76.7943C173.109 70.7634 171.802 64.7262 170.489 58.6953L175.623 14.4124L157.916 37.671L122.758 86.5658L170.482 58.6953" stroke="white" stroke-miterlimit="10" stroke-linecap="round" stroke-linejoin="round"/>
<path d="M170.495 58.6892L157.929 37.6649L133.208 32.3186L122.77 86.5597" stroke="white" stroke-miterlimit="10" stroke-linecap="round" stroke-linejoin="round"/>
<path d="M154.836 6.63879L157.929 37.6648" stroke="white" stroke-miterlimit="10" stroke-linecap="round" stroke-linejoin="round"/>
<path d="M133.208 32.3186L120.262 12.6511L106.482 56.3676C107.777 64.5085 109.071 72.6493 110.366 80.7964C117.897 65.0624 125.428 49.3222 132.959 33.5883" stroke="white" stroke-miterlimit="10" stroke-linecap="round" stroke-linejoin="round"/>
<path d="M42.8494 111.113L47.1065 103.887L54.4942 105.474L50.4861 98.7087L57.127 100.339C58.8821 96.5801 60.6372 92.8209 62.3861 89.0679C65.0188 92.7026 67.6453 96.3311 70.278 99.9659L81.425 84.1821L62.3861 89.0679L63.5127 76.0413C68.0312 72.6306 72.5497 69.2199 77.0682 65.8092C83.3232 70.807 89.5782 75.8048 95.8332 80.7963C94.5013 76.3338 93.2379 71.0062 92.4288 64.9317C91.6072 58.7389 91.4392 53.1623 91.5699 48.4384C89.7339 40.7706 87.8978 33.1028 86.0556 25.4287C92.8645 35.7417 99.6671 46.0546 106.476 56.3676C101.789 59.2181 97.1092 62.0749 92.4226 64.9254" stroke="white" stroke-miterlimit="10" stroke-linecap="round" stroke-linejoin="round"/>
<path d="M39.7188 107.354L47.1065 103.887L38.2126 103.594" stroke="white" stroke-miterlimit="10" stroke-linecap="round" stroke-linejoin="round"/>
<path d="M39.4698 89.3169L53.9964 84.176L52.9943 91.4455" stroke="white" stroke-miterlimit="10" stroke-linecap="round" stroke-linejoin="round"/>
<path d="M46.9821 91.1903L53.9964 84.176L62.3924 89.0618" stroke="white" stroke-miterlimit="10" stroke-linecap="round" stroke-linejoin="round"/>
<path d="M92.6217 86.5596L81.4311 84.1821L95.8394 80.8025L63.5188 76.0413L64.8943 52.1167C73.7882 50.8906 82.6822 49.6645 91.5761 48.4446C86.7401 54.2328 81.9041 60.0272 77.0682 65.8154" stroke="white" stroke-miterlimit="10" stroke-linecap="round" stroke-linejoin="round"/>
<path d="M91.5761 48.4384L75.0393 27.4328L64.8944 52.1104C60.9671 51.7744 57.046 51.4445 53.1188 51.1084C48.6936 52.3594 44.2684 53.6166 39.8433 54.8676C51.5753 45.7248 63.3072 36.5819 75.0455 27.4328C71.2053 24.5511 67.3652 21.6695 63.5188 18.7878C64.7698 14.7361 66.0271 10.6843 67.2781 6.63879" stroke="white" stroke-miterlimit="10" stroke-linecap="round" stroke-linejoin="round"/>
<path d="M63.5188 18.7878L42.6627 30.7501L39.8433 54.8614C35.5426 43.0423 31.2419 31.2294 26.9412 19.4102" stroke="white" stroke-miterlimit="10" stroke-linecap="round" stroke-linejoin="round"/>
<path d="M1.01245 41.4614C3.52067 38.7478 6.02265 36.0342 8.53087 33.3206C7.36078 36.308 6.19068 39.2893 5.02059 42.2767" stroke="white" stroke-miterlimit="10" stroke-linecap="round" stroke-linejoin="round"/>
<path d="M27.6942 51.986L34.9761 41.4987L8.52466 33.3206L15.0411 51.1084C21.6882 47.9031 28.329 44.6978 34.9761 41.4987C34.6338 46.372 34.2977 51.2453 33.9554 56.1248" stroke="white" stroke-miterlimit="10" stroke-linecap="round" stroke-linejoin="round"/>
<path d="M56.99 41.4987L42.6565 30.7501L44.5983 13.2734C48.6065 14.0639 52.6147 14.8605 56.6228 15.651C58.9195 16.6966 61.2161 17.736 63.5127 18.7816" stroke="white" stroke-miterlimit="10" stroke-linecap="round" stroke-linejoin="round"/>
<path d="M48.1086 4.75928L56.6291 15.6573" stroke="white" stroke-miterlimit="10" stroke-linecap="round" stroke-linejoin="round"/>
<path d="M63.5188 76.035C60.0521 67.7262 56.5855 59.4173 53.125 51.1084" stroke="white" stroke-miterlimit="10" stroke-linecap="round" stroke-linejoin="round"/>
</svg>
