<svg width="204" height="247" viewBox="0 0 204 247" fill="none" xmlns="http://www.w3.org/2000/svg">
<path d="M123.023 12.5297L114.5 1L107.23 12.5297L104.294 51.4574L108.698 74.9623L119.716 89.2876L140.278 110.22L135.001 119.581L137.065 134.451L127.428 140.651L116.824 132.111L96.1679 127.292C90.0627 126.006 83.9575 124.719 77.8524 123.433C69.9593 125.083 62.0589 126.74 54.1658 128.39C49.6959 131.631 45.2334 134.88 40.7635 138.122C34.8546 140.847 28.9529 143.565 23.044 146.291L3.89995 177.965L5.27362 203.578L14.9111 216.798L6.09491 215.694L1 225.469L5.40444 235.797L14.2206 239.104L24.8247 237.454L27.0269 228.638L33.6335 236.073L31.9837 241.997C39.4553 241.67 46.9196 241.343 54.3911 241.015C63.4035 241.343 72.4086 241.67 81.421 241.997C90.5206 241.67 99.6202 241.343 108.72 241.015C113.713 241.343 118.706 241.67 123.699 241.997L127.006 237.454L124.528 230.978L119.985 225.055L108.967 223.812L101.946 224.779L95.0631 226.428L85.1495 224.502L81.5663 220.643C85.9708 220.047 90.3825 219.451 94.7869 218.855L107.593 216.653L115.995 212.663L122.878 216.384L129.078 227.541L136.927 234.561L140.278 244.889H163.092L189.395 245.856L194.352 240.761L189.671 230.295L171.632 232.497L170.803 222.722L165.847 219.691L164.604 194.078L177.548 186.091L179.889 175.072L176.996 157.724L188.974 159.788L203.023 148.769V140.091L191.045 130.04C190.747 126.769 190.449 123.491 190.158 120.22C187.128 118.353 184.097 116.485 181.066 114.617C178.057 113.054 175.048 111.492 172.039 109.929L175.346 87.4851C175.419 82.3612 175.484 77.2372 175.557 72.1132C174.663 61.3565 173.762 50.5998 172.868 39.8358C172.039 33.1782 171.218 26.5207 170.389 19.8704L157.583 5L148.491 22.9012L147.524 40.9405L154.959 90.5159L153.716 95.7489L146.419 85.9734L135.677 40.8024C131.469 31.3758 127.246 21.9564 123.023 12.5297Z" stroke="white" stroke-miterlimit="10" stroke-linejoin="round"/>
<path d="M107.23 12.5297L117.354 28.5993L104.286 51.4573L125.153 58.5292L135.684 40.8097C129.572 36.7395 123.459 32.6694 117.354 28.6066C119.244 23.25 121.126 17.8935 123.016 12.5369" stroke="white" stroke-miterlimit="10" stroke-linejoin="round"/>
<path d="M117.354 28.5994C117.601 33.8905 117.841 39.1889 118.088 44.4801C120.443 49.1607 122.798 53.8413 125.16 58.5292C119.673 64.002 114.185 69.4822 108.698 74.955C115.108 76.0743 121.526 77.1936 127.937 78.3128C132.188 72.8255 136.44 67.3381 140.692 61.858C135.517 60.746 130.335 59.6412 125.16 58.5292" stroke="white" stroke-miterlimit="10" stroke-linejoin="round"/>
<path d="M135.692 40.8025L118.096 44.4801L104.294 51.4575" stroke="white" stroke-miterlimit="10" stroke-linejoin="round"/>
<path d="M146.434 85.9733L127.944 78.3128L121.599 91.1918L134.623 94.288C140.954 94.8113 147.284 95.3346 153.607 95.8579C153.12 100.03 152.641 104.209 152.154 108.381C148.2 108.991 144.239 109.602 140.285 110.212C138.577 104.921 136.869 99.6227 135.161 94.3316C132.755 88.9896 130.349 83.6548 127.944 78.3128C127.021 71.7207 126.09 65.1213 125.167 58.5292" stroke="white" stroke-miterlimit="10" stroke-linejoin="round"/>
<path d="M5.41896 235.804C9.37278 231.916 13.3193 228.02 17.2732 224.132C11.8512 224.582 6.43649 225.026 1.01453 225.476" stroke="white" stroke-miterlimit="10" stroke-linejoin="round"/>
<path d="M27.0341 228.645L17.2658 224.132L14.9182 216.798C20.1439 216.798 25.3697 216.798 30.6027 216.806C29.4107 220.752 28.226 224.699 27.0341 228.645Z" stroke="white" stroke-miterlimit="10" stroke-linejoin="round"/>
<path d="M14.2278 239.111L17.2658 224.132L24.8318 237.454" stroke="white" stroke-miterlimit="10" stroke-linejoin="round"/>
<path d="M5.28088 203.578C15.805 197.945 26.3219 192.32 36.846 186.687C29.5344 196.724 22.2299 206.761 14.9183 216.798" stroke="white" stroke-miterlimit="10" stroke-linejoin="round"/>
<path d="M33.6481 236.08L45.9312 228.645L54.3984 241.023L62.6404 228.645L81.4356 242.004L85.1568 224.517C77.6562 225.891 70.1483 227.272 62.6477 228.645C61.5793 222.329 60.5036 216.006 59.4352 209.69C54.9362 216.006 50.4374 222.329 45.9384 228.645C40.829 224.699 35.7195 220.752 30.6101 216.806L36.8534 186.694L73.1136 156.583L23.0513 146.298C27.652 159.766 32.2527 173.234 36.8534 186.694C25.8713 183.787 14.8893 180.88 3.91455 177.965" stroke="white" stroke-miterlimit="10" stroke-linejoin="round"/>
<path d="M119.993 225.062L109.694 234.889L108.727 241.016" stroke="white" stroke-miterlimit="10" stroke-linejoin="round"/>
<path d="M124.535 230.986L109.694 234.889L123.707 241.997" stroke="white" stroke-miterlimit="10" stroke-linejoin="round"/>
<path d="M95.0632 226.436L109.694 234.612L94.6852 241.524L85.1495 225.062" stroke="white" stroke-miterlimit="10" stroke-linejoin="round"/>
<path d="M54.1658 128.39L73.1064 156.575L77.8524 123.433" stroke="white" stroke-miterlimit="10" stroke-linejoin="round"/>
<path d="M116.824 132.104L73.1064 156.575L85.1495 194.144L36.8461 186.687L59.4279 209.69L30.6028 216.806" stroke="white" stroke-miterlimit="10" stroke-linejoin="round"/>
<path d="M59.4279 209.69L85.1495 194.144L81.5663 220.658" stroke="white" stroke-miterlimit="10" stroke-linejoin="round"/>
<path d="M94.7868 218.862C91.5744 210.62 88.3619 202.386 85.1494 194.144L107.593 216.66L109.686 181.178L73.099 156.575L134.332 171.54C132.028 161.241 129.724 150.943 127.42 140.644" stroke="white" stroke-miterlimit="10" stroke-linejoin="round"/>
<path d="M85.1495 194.144L109.694 181.185L134.34 171.54L115.995 212.67" stroke="white" stroke-miterlimit="10" stroke-linejoin="round"/>
<path d="M148.498 22.9013L159.771 28.5994L170.396 19.8705" stroke="white" stroke-miterlimit="10" stroke-linejoin="round"/>
<path d="M173.006 42.3723L159.771 28.5994L164.182 53.4561L147.531 40.9405L159.771 28.5994L157.583 5" stroke="white" stroke-miterlimit="10" stroke-linejoin="round"/>
<path d="M172.286 41.6165L164.182 53.4561C167.976 59.6776 171.77 65.899 175.564 72.1132C172.199 74.4099 168.834 76.7066 165.469 78.996C161.202 77.7314 156.943 76.4668 152.677 75.2094C156.515 67.9559 160.345 60.7024 164.182 53.4561" stroke="white" stroke-miterlimit="10" stroke-linejoin="round"/>
<path d="M154.966 90.516L165.461 78.9961L175.346 87.4852C171.836 92.9508 168.325 98.4163 164.815 103.875C160.468 105.394 156.122 106.913 151.776 108.432" stroke="white" stroke-miterlimit="10" stroke-linejoin="round"/>
<path d="M135.001 119.574L148.752 124.996C154.865 124.93 160.977 124.865 167.09 124.799C175.077 126.544 183.065 128.288 191.052 130.04" stroke="white" stroke-miterlimit="10" stroke-linejoin="round"/>
<path d="M190.158 120.22C186.335 121.078 182.505 121.936 178.682 122.793C174.816 123.462 170.949 124.131 167.09 124.807C170.128 129.902 173.166 135.004 176.204 140.099L177.003 157.724L150.962 152.171C152.902 147.977 154.85 143.783 156.791 139.59C160.221 134.662 163.659 129.727 167.09 124.799" stroke="white" stroke-miterlimit="10" stroke-linejoin="round"/>
<path d="M203.03 140.091H176.204C180.463 146.654 184.722 153.217 188.981 159.78" stroke="white" stroke-miterlimit="10" stroke-linejoin="round"/>
<path d="M148.752 124.995L156.791 139.59L176.204 157.549" stroke="white" stroke-miterlimit="10" stroke-linejoin="round"/>
<path d="M179.794 174.455L134.347 171.54C139.885 165.086 145.423 158.625 150.962 152.171C146.332 146.262 141.702 140.353 137.072 134.451C140.968 131.304 144.864 128.15 148.759 125.003C149.893 119.465 151.027 113.926 152.154 108.388C157.132 113.861 162.111 119.341 167.09 124.814C168.739 119.857 170.396 114.9 172.046 109.943C169.641 107.923 167.228 105.91 164.822 103.889C161.05 100.728 157.19 98.191 153.607 95.8652" stroke="white" stroke-miterlimit="10" stroke-linejoin="round"/>
<path d="M177.556 186.091L134.34 171.54L146.739 203.076L122.885 216.384" stroke="white" stroke-miterlimit="10" stroke-linejoin="round"/>
<path d="M164.611 194.078L146.739 203.076L165.854 219.691C160.723 220.716 155.591 221.741 150.46 222.773C145.954 226.705 141.441 230.637 136.934 234.569C140.205 224.074 143.468 213.579 146.739 203.083C140.852 211.238 134.972 219.393 129.085 227.548" stroke="white" stroke-miterlimit="10" stroke-linejoin="round"/>
<path d="M170.804 222.722L155.272 236.495L140.278 244.889" stroke="white" stroke-miterlimit="10" stroke-linejoin="round"/>
<path d="M150.453 222.773L155.272 236.495L164.778 244.955L171.632 232.497L181.161 241.016L189.671 230.295" stroke="white" stroke-miterlimit="10" stroke-linejoin="round"/>
<path d="M189.395 245.856L181.161 241.015L194.352 240.761" stroke="white" stroke-miterlimit="10" stroke-linejoin="round"/>
<path d="M181.161 241.015L164.778 244.955" stroke="white" stroke-miterlimit="10" stroke-linejoin="round"/>
<path d="M203.03 148.769L176.204 140.091" stroke="white" stroke-miterlimit="10" stroke-linejoin="round"/>
</svg>
