<svg width="370" height="223" viewBox="0 0 370 223" fill="none" xmlns="http://www.w3.org/2000/svg">
<g filter="url(#filter0_d)">
<path d="M48.2573 77.0066C36.7189 77.0066 33.4999 81.6154 33.4999 92C33.4999 81.6154 32.1035 77.0066 18.2573 77.0066C32.1035 77.0066 33.4999 69.5 33.4999 62C33.4999 69.5 36.7189 77.0066 48.2573 77.0066Z" fill="white"/>
<path d="M122 62.0066C110.462 62.0066 107.243 66.6154 107.243 77C107.243 66.6154 105.846 62.0066 92 62.0066C105.846 62.0066 107.243 54.5 107.243 47C107.243 54.5 110.462 62.0066 122 62.0066Z" fill="white"/>
<path d="M365 115.007C353.462 115.007 350.243 119.615 350.243 130C350.243 119.615 348.846 115.007 335 115.007C348.846 115.007 350.243 107.5 350.243 100C350.243 107.5 353.462 115.007 365 115.007Z" fill="white"/>
<path d="M254 75.0066C242.462 75.0066 239.243 79.6154 239.243 90C239.243 79.6154 237.846 75.0066 224 75.0066C237.846 75.0066 239.243 67.5 239.243 60C239.243 67.5 242.462 75.0066 254 75.0066Z" fill="white"/>
<path d="M365 33C353.462 33 350 37.6154 350 48C350 37.6154 348.846 33 335 33C348.846 33 348.846 26.0769 350 18C352.308 26.0769 353.462 33 365 33Z" fill="white"/>
<path d="M35 155C23.4615 155 20 159.615 20 170C20 159.615 18.8462 155 5 155C18.8462 155 18.8462 148.077 20 140C22.3077 148.077 23.4615 155 35 155Z" fill="white"/>
<circle cx="88.5" cy="14.5" r="3.5" fill="white"/>
<circle cx="326.5" cy="73.5" r="3.5" fill="white"/>
<circle cx="169.5" cy="76.5" r="3.5" fill="white"/>
<circle cx="176.5" cy="21.5" r="3.5" fill="white"/>
<g filter="url(#filter1_b)">
<circle cx="65.5" cy="118.5" r="3.5" fill="white"/>
</g>
<circle cx="349.5" cy="169.5" r="3.5" fill="white"/>
<circle cx="24.5" cy="9.5" r="1.5" fill="white"/>
<circle cx="289.5" cy="49.5" r="1.5" fill="white"/>
<circle cx="260.5" cy="3.5" r="1.5" fill="white"/>
<circle cx="152.5" cy="121.5" r="3.5" fill="white"/>
<circle cx="194.5" cy="169.5" r="3.5" fill="white"/>
<circle cx="294.5" cy="150.5" r="3.5" fill="white"/>
<circle cx="242.5" cy="122.5" r="3.5" fill="white"/>
<g filter="url(#filter2_b)">
<circle cx="38.5" cy="211.5" r="3.5" fill="white"/>
</g>
<circle cx="128.5" cy="152.5" r="1.5" fill="white"/>
<circle cx="288.5" cy="191.5" r="1.5" fill="white"/>
<circle cx="75.5" cy="180.5" r="1.5" fill="white"/>
<circle cx="326.5" cy="206.5" r="1.5" fill="white"/>
<circle cx="324.5" cy="110.5" r="1.5" fill="white"/>
</g>
<defs>
<filter id="filter0_d" x="0" y="0" width="370" height="223" filterUnits="userSpaceOnUse" color-interpolation-filters="sRGB">
<feFlood flood-opacity="0" result="BackgroundImageFix"/>
<feColorMatrix in="SourceAlpha" type="matrix" values="0 0 0 0 0 0 0 0 0 0 0 0 0 0 0 0 0 0 127 0"/>
<feOffset dy="3"/>
<feGaussianBlur stdDeviation="2.5"/>
<feColorMatrix type="matrix" values="0 0 0 0 1 0 0 0 0 1 0 0 0 0 1 0 0 0 0.4 0"/>
<feBlend mode="normal" in2="BackgroundImageFix" result="effect1_dropShadow"/>
<feBlend mode="normal" in="SourceGraphic" in2="effect1_dropShadow" result="shape"/>
</filter>
<filter id="filter1_b" x="58" y="111" width="15" height="15" filterUnits="userSpaceOnUse" color-interpolation-filters="sRGB">
<feFlood flood-opacity="0" result="BackgroundImageFix"/>
<feGaussianBlur in="BackgroundImage" stdDeviation="2"/>
<feComposite in2="SourceAlpha" operator="in" result="effect1_backgroundBlur"/>
<feBlend mode="normal" in="SourceGraphic" in2="effect1_backgroundBlur" result="shape"/>
</filter>
<filter id="filter2_b" x="31" y="204" width="15" height="15" filterUnits="userSpaceOnUse" color-interpolation-filters="sRGB">
<feFlood flood-opacity="0" result="BackgroundImageFix"/>
<feGaussianBlur in="BackgroundImage" stdDeviation="2"/>
<feComposite in2="SourceAlpha" operator="in" result="effect1_backgroundBlur"/>
<feBlend mode="normal" in="SourceGraphic" in2="effect1_backgroundBlur" result="shape"/>
</filter>
</defs>
</svg>
