<svg width="61" height="61" viewBox="0 0 61 61" fill="none" xmlns="http://www.w3.org/2000/svg">
<circle cx="30.5" cy="30.5" r="29" stroke="#01FE66" stroke-width="3"/>
<path d="M15.8333 15H45.1667C46.175 15 47 15.825 47 16.8333V46.1667L14 46.13V16.8333C14 15.825 14.825 15 15.8333 15ZM23.1667 16.8333L19.5 22.3333H21.3333L25 16.8333H23.1667ZM30.5 16.8333H28.6667L25 22.3333H26.8333L30.5 16.8333ZM36 16.8333H34.1667L30.5 22.3333H32.3333L36 16.8333ZM41.5 16.8333H39.6667L36 22.3333H37.8333L41.5 16.8333ZM43.3333 42.5V24.1667H17.6667V42.5H43.3333ZM26.8333 26L37.8333 33.3333L26.8333 40.6667V26Z" fill="white"/>
</svg>
