<svg width="33" height="32" viewBox="0 0 33 32" fill="none" xmlns="http://www.w3.org/2000/svg">
<path d="M1.83333 0H31.1667C32.175 0 33 0.825 33 1.83333V31.1667L0 31.13V1.83333C0 0.825 0.825 0 1.83333 0ZM9.16667 1.83333L5.5 7.33333H7.33333L11 1.83333H9.16667ZM16.5 1.83333H14.6667L11 7.33333H12.8333L16.5 1.83333ZM22 1.83333H20.1667L16.5 7.33333H18.3333L22 1.83333ZM27.5 1.83333H25.6667L22 7.33333H23.8333L27.5 1.83333ZM29.3333 27.5V9.16667H3.66667V27.5H29.3333ZM12.8333 11L23.8333 18.3333L12.8333 25.6667V11Z" fill="white"/>
</svg>
