<svg width="273" height="114" viewBox="0 0 273 114" fill="none" xmlns="http://www.w3.org/2000/svg">
<path d="M272.24 62.5875L245.699 51.1966L219.716 18.2526L192.03 1.00562H136.028L107.232 11.9231L81.8411 39.2928L60.1696 37.3145L49.7256 28.691L30.9793 25.9236L1 43.3227L4.95666 61.4377L34.6204 68.3985C42.0377 66.9613 49.4494 65.524 56.8667 64.0868C65.2986 63.0215 73.7305 61.9506 82.1623 60.8854L62.069 87.545L70.608 112.779L100.666 100.362L92.2005 88.4975L104.144 70.3036L115.85 79.006L192.656 81.3L217.968 72.2819L234.263 84.941L234.421 95.5428L243.36 100.367L261.001 82.8048L248.342 72.2819L272.24 62.5875Z" stroke="white" stroke-miterlimit="10" stroke-linejoin="round"/>
<path d="M271.874 62.4298H253.922L245.704 51.1967L233.987 60.412L248.353 72.2763C250.208 68.996 252.062 65.7101 253.922 62.4298C247.277 61.759 240.632 61.0827 233.987 60.412" stroke="white" stroke-miterlimit="10" stroke-linejoin="round"/>
<path d="M243.371 100.356L245.704 85.0312L234.432 95.5316" stroke="white" stroke-miterlimit="10" stroke-linejoin="round"/>
<path d="M261.007 82.7935L245.699 85.0255L234.268 84.9241L233.981 60.4006C237.887 68.607 241.793 76.8135 245.699 85.0199" stroke="white" stroke-miterlimit="10" stroke-linejoin="round"/>
<path d="M233.987 60.412L217.979 72.2763L223.898 38.0416L245.704 51.1967" stroke="white" stroke-miterlimit="10" stroke-linejoin="round"/>
<path d="M217.98 72.2763L198.45 64.4475L168.854 41.4289C180.115 36.0238 191.371 30.6186 202.632 25.2134C209.722 29.4913 216.813 33.7692 223.903 38.0472" stroke="white" stroke-miterlimit="10" stroke-linejoin="round"/>
<path d="M198.45 64.442L171.542 61.4773" stroke="white" stroke-miterlimit="10" stroke-linejoin="round"/>
<path d="M189.973 46.4903L168.854 41.4233" stroke="white" stroke-miterlimit="10" stroke-linejoin="round"/>
<path d="M192.667 81.2943L137.77 70.4558L140.813 50.8585L135.532 37.4498L137.37 16.1503L136.022 1L171.063 21.0144L168.848 41.4234L171.537 61.4772L192.667 81.2943ZM192.667 81.2943C194.595 75.6806 196.522 70.0612 198.45 64.4475C199.842 51.3714 201.24 38.2896 202.632 25.2134L189.973 46.4904L198.444 64.4475L223.898 38.0472L219.715 18.2526L202.632 25.2134L192.03 1.00564L171.069 21.02L202.632 25.2134" stroke="white" stroke-miterlimit="10" stroke-linejoin="round"/>
<path d="M168.854 41.4234L140.813 50.8585L118.071 58.1969C114.205 50.0638 110.338 41.9306 106.472 33.8031C98.2595 35.6349 90.0531 37.4611 81.8411 39.2928L104.149 70.3036C104.922 58.1349 105.699 45.9718 106.472 33.8031C106.725 26.5098 106.979 19.2164 107.232 11.9231L136.62 16.0488L137.37 16.1559L171.069 21.02L135.532 37.4554L168.854 41.4234ZM168.854 41.4234L137.764 70.4558C149.025 67.4629 160.281 64.4701 171.542 61.4772" stroke="white" stroke-miterlimit="10" stroke-linejoin="round"/>
<path d="M100.666 100.356L80.1783 95.5879L84.6874 80.1051L62.0634 87.5393C68.0998 90.2222 74.1419 92.9051 80.1783 95.5879C76.9882 101.314 73.7981 107.046 70.6079 112.773" stroke="white" stroke-miterlimit="10" stroke-linejoin="round"/>
<path d="M80.184 95.5936L92.2062 88.4919L84.693 80.1051L82.1623 60.8854L81.8467 39.2928L52.9552 48.4912L49.7312 28.6967L27.265 38.701L33.7918 58.2815L4.95667 61.4378C12.3909 53.857 19.8252 46.2762 27.265 38.6954C28.505 34.4344 29.745 30.179 30.985 25.918" stroke="white" stroke-miterlimit="10" stroke-linejoin="round"/>
<path d="M1 43.3228L27.2594 38.6954L52.9495 48.4856L33.7862 58.2758L34.6204 68.3986" stroke="white" stroke-miterlimit="10" stroke-linejoin="round"/>
<path d="M60.1695 37.3145L52.9495 48.4856L56.8667 64.0868L33.7861 58.2758" stroke="white" stroke-miterlimit="10" stroke-linejoin="round"/>
<path d="M57.1034 64.0868L67.012 51.0952L81.841 39.2928" stroke="white" stroke-miterlimit="10" stroke-linejoin="round"/>
<path d="M67.0121 51.0952L82.1624 60.8854L104.155 70.2979C108.794 66.2624 113.438 62.2268 118.077 58.1969C124.643 62.2832 131.209 66.3695 137.775 70.4558L115.862 79.0004L118.077 58.1969L135.538 37.4497L106.477 33.7974L137.375 16.1503" stroke="white" stroke-miterlimit="10" stroke-linejoin="round"/>
<path d="M104.149 70.298L84.6874 80.1051" stroke="white" stroke-miterlimit="10" stroke-linejoin="round"/>
</svg>
