<svg width="273" height="273" viewBox="0 0 273 273" fill="none" xmlns="http://www.w3.org/2000/svg">
<g clip-path="url(#clip0)">
<path d="M135.09 264.02C178.3 220.81 220.8 178.31 262.96 136.15C220.9 94.09 178.49 51.68 136.62 9.80999C94.68 51.77 52.19 94.28 9.19005 137.29C9.74005 137.86 11.26 139.48 12.83 141.05C35.62 163.84 58.41 186.62 81.2 209.41C82.32 210.53 83.96 211.56 84.34 212.91C84.39 213.08 84.42 213.22 84.44 213.3C84.57 213.91 85.06 216.29 83.52 217.77C82.44 218.82 80.61 219.16 79.42 218.51C79.33 218.46 79.27 218.42 79.18 218.36C77.87 217.45 77.21 216.99 75.93 215.62C74.93 214.55 19.05 158.75 4.93005 144.63C-1.67995 138.01 -1.65995 134.34 5.02005 127.67C45.97 86.71 86.91 45.76 127.86 4.81999C134.26 -1.58001 138.06 -1.61001 144.45 4.76999C185.53 45.83 226.6 86.9 267.66 127.98C273.97 134.29 273.92 138.12 267.47 144.57C226.41 185.64 185.33 226.71 144.25 267.77C138.13 273.88 134.19 273.86 128.04 267.72C116.76 256.46 105.5 245.19 94.23 233.92C93.98 233.67 93.74 233.41 93.49 233.16C91.32 231.01 88.6 228.65 91.5 225.59C94.45 222.48 96.87 225.09 99.06 227.28C105.94 234.17 112.89 241 119.71 247.95C125.02 253.35 130.19 258.89 135.09 264.02Z" fill="white"/>
<path d="M246.74 135.78C246.83 137.94 244.92 140.07 243.06 142.16C242.86 142.38 242.7 142.55 242.68 142.57C210.08 176.8 175.91 209.5 142.43 242.87C137.9 247.38 133.92 246.89 128.7 241.68C98.0201 211.02 67.3601 180.34 36.6901 149.66C34.6901 147.66 32.6601 145.67 30.6801 143.66C25.0201 137.92 24.9601 134.44 30.5901 128.8C48.9701 110.37 67.3901 91.9801 85.7901 73.5801C100.06 59.3101 114.33 45.0301 128.62 30.7801C134.52 24.8901 137.9 24.9001 143.85 30.8501C176.41 63.3901 208.97 95.9301 241.46 128.53C241.47 128.54 241.77 128.86 242.17 129.29C245.17 132.62 246.68 134.28 246.74 135.78ZM136.16 36.0201C102.89 69.3 69.2801 102.92 36.0201 136.18C69.3101 169.46 102.93 203.07 136.22 236.36C169.49 203.09 203.11 169.47 236.35 136.22C203.05 102.91 169.43 69.2901 136.16 36.0201Z" fill="white"/>
<path d="M118.35 80.3C118.57 78.95 118.82 77.87 118.92 77.51C120.26 72.39 128.6 63.63 138.6 64.97C147.64 66.18 154.02 75.02 154.4 81.57C154.59 84.85 153.83 97.23 153.88 98.28C153.88 98.31 153.89 98.49 153.88 98.72C153.88 98.72 153.84 99.44 153.6 100.09C153.29 100.89 151.42 103.06 148.94 102.47C147.26 102.07 146.22 100.6 145.94 99.39C145.78 98.72 145.87 98.17 145.9 97.99C146.3 95.34 146.89 88.47 146.68 85.11C146.63 84.26 146.06 76.74 141.14 74C139.76 73.23 138.17 72.78 136.43 72.73C130.11 72.54 125.28 77.89 125.68 85.12C126.98 108.08 128.42 131.02 129.85 153.97C130.08 157.75 131.77 160.51 135.92 160.64C140.35 160.78 142.23 157.99 142.5 153.95C143.23 143.01 143.92 132.06 144.51 121.11C144.68 118.01 145.17 115.02 148.97 115.36C152.39 115.67 152.54 118.63 152.37 121.48C151.8 131.37 151.42 141.27 150.77 151.15C150.01 162.82 144.75 169.05 136.04 168.97C127.51 168.88 122.33 162.81 121.6 151.42C120.29 130.77 119.19 110.1 118.01 89.44C117.82 87.23 117.74 84.06 118.35 80.3Z" fill="white"/>
<path d="M135.96 207.47C127.51 207.39 121.02 200.76 121.05 192.25C121.08 183.74 127.63 177.18 136.12 177.15C144.81 177.12 151.45 183.92 151.28 192.68C151.11 201.18 144.52 207.55 135.96 207.47ZM143.44 192.26C143.39 188.57 139.94 185.15 136.22 185.12C132.28 185.09 128.69 188.81 128.91 192.69C129.12 196.49 132.59 199.68 136.38 199.56C140.17 199.43 143.5 195.99 143.44 192.26Z" fill="white"/>
</g>
<defs>
<clipPath id="clip0">
<rect width="272.35" height="272.34" fill="white"/>
</clipPath>
</defs>
</svg>
