<svg width="61" height="61" viewBox="0 0 61 61" fill="none" xmlns="http://www.w3.org/2000/svg">
<circle cx="30.5" cy="30.5" r="29" stroke="#01FE66" stroke-width="3"/>
<path d="M37.694 33.8C37.826 32.711 37.925 31.622 37.925 30.5C37.925 29.378 37.826 28.289 37.694 27.2H43.271C43.535 28.256 43.7 29.3615 43.7 30.5C43.7 31.6385 43.535 32.744 43.271 33.8H37.694ZM34.7735 42.974C35.7635 41.1425 36.5225 39.1625 37.0505 37.1H41.918C40.3194 39.8527 37.7833 41.9378 34.7735 42.974ZM34.361 33.8H26.639C26.474 32.711 26.375 31.622 26.375 30.5C26.375 29.378 26.474 28.2725 26.639 27.2H34.361C34.5095 28.2725 34.625 29.378 34.625 30.5C34.625 31.622 34.5095 32.711 34.361 33.8ZM30.5 43.634C29.1305 41.654 28.025 39.4595 27.3485 37.1H33.6515C32.975 39.4595 31.8695 41.654 30.5 43.634ZM23.9 23.9H19.082C20.6641 21.1399 23.1984 19.0515 26.21 18.026C25.22 19.8575 24.4775 21.8375 23.9 23.9ZM19.082 37.1H23.9C24.4775 39.1625 25.22 41.1425 26.21 42.974C23.2047 41.9372 20.674 39.8517 19.082 37.1ZM17.729 33.8C17.465 32.744 17.3 31.6385 17.3 30.5C17.3 29.3615 17.465 28.256 17.729 27.2H23.306C23.174 28.289 23.075 29.378 23.075 30.5C23.075 31.622 23.174 32.711 23.306 33.8H17.729ZM30.5 17.3495C31.8695 19.3295 32.975 21.5405 33.6515 23.9H27.3485C28.025 21.5405 29.1305 19.3295 30.5 17.3495ZM41.918 23.9H37.0505C36.5341 21.8564 35.7694 19.8837 34.7735 18.026C37.8095 19.0655 40.334 21.161 41.918 23.9ZM30.5 14C21.3755 14 14 21.425 14 30.5C14 34.8761 15.7384 39.0729 18.8327 42.1673C20.3649 43.6994 22.1839 44.9148 24.1857 45.744C26.1876 46.5732 28.3332 47 30.5 47C34.8761 47 39.0729 45.2616 42.1673 42.1673C45.2616 39.0729 47 34.8761 47 30.5C47 28.3332 46.5732 26.1876 45.744 24.1857C44.9148 22.1839 43.6994 20.3649 42.1673 18.8327C40.6351 17.3006 38.8161 16.0852 36.8143 15.256C34.8124 14.4268 32.6668 14 30.5 14Z" fill="white"/>
</svg>
