<svg width="33" height="33" viewBox="0 0 33 33" fill="none" xmlns="http://www.w3.org/2000/svg">
<path d="M23.694 19.8C23.826 18.711 23.925 17.622 23.925 16.5C23.925 15.378 23.826 14.289 23.694 13.2H29.271C29.535 14.256 29.7 15.3615 29.7 16.5C29.7 17.6385 29.535 18.744 29.271 19.8H23.694ZM20.7735 28.974C21.7635 27.1425 22.5225 25.1625 23.0505 23.1H27.918C26.3194 25.8527 23.7833 27.9378 20.7735 28.974ZM20.361 19.8H12.639C12.474 18.711 12.375 17.622 12.375 16.5C12.375 15.378 12.474 14.2725 12.639 13.2H20.361C20.5095 14.2725 20.625 15.378 20.625 16.5C20.625 17.622 20.5095 18.711 20.361 19.8ZM16.5 29.634C15.1305 27.654 14.025 25.4595 13.3485 23.1H19.6515C18.975 25.4595 17.8695 27.654 16.5 29.634ZM9.9 9.9H5.082C6.66411 7.1399 9.19841 5.05145 12.21 4.026C11.22 5.8575 10.4775 7.8375 9.9 9.9ZM5.082 23.1H9.9C10.4775 25.1625 11.22 27.1425 12.21 28.974C9.20473 27.9372 6.674 25.8517 5.082 23.1ZM3.729 19.8C3.465 18.744 3.3 17.6385 3.3 16.5C3.3 15.3615 3.465 14.256 3.729 13.2H9.306C9.174 14.289 9.075 15.378 9.075 16.5C9.075 17.622 9.174 18.711 9.306 19.8H3.729ZM16.5 3.3495C17.8695 5.3295 18.975 7.5405 19.6515 9.9H13.3485C14.025 7.5405 15.1305 5.3295 16.5 3.3495ZM27.918 9.9H23.0505C22.5341 7.85641 21.7694 5.88373 20.7735 4.026C23.8095 5.0655 26.334 7.161 27.918 9.9ZM16.5 0C7.3755 0 0 7.425 0 16.5C0 20.8761 1.73839 25.0729 4.83274 28.1673C6.3649 29.6994 8.18385 30.9148 10.1857 31.744C12.1876 32.5732 14.3332 33 16.5 33C20.8761 33 25.0729 31.2616 28.1673 28.1673C31.2616 25.0729 33 20.8761 33 16.5C33 14.3332 32.5732 12.1876 31.744 10.1857C30.9148 8.18385 29.6994 6.3649 28.1673 4.83274C26.6351 3.30057 24.8161 2.08519 22.8143 1.25599C20.8124 0.426785 18.6668 0 16.5 0Z" fill="white"/>
</svg>
